<?xml version="1.0" standalone="no"?>
<!DOCTYPE svg PUBLIC "-//W3C//DTD SVG 20010904//EN"
 "http://www.w3.org/TR/2001/REC-SVG-20010904/DTD/svg10.dtd">
<svg version="1.0" xmlns="http://www.w3.org/2000/svg"
 width="694.000000pt" height="587.000000pt" viewBox="0 0 694.000000 587.000000"
 preserveAspectRatio="xMidYMid meet">
<metadata>
Created by potrace 1.15, written by Peter Selinger 2001-2017
</metadata>
<g transform="translate(0.000000,587.000000) scale(0.100000,-0.100000)"
fill="#000000" stroke="none">
<path d="M2126 3682 c-1127 -1038 -2051 -1893 -2053 -1899 -5 -14 613 -327
631 -320 10 5 133 118 743 689 l202 189 871 -402 870 -401 0 -374 c0 -287 3
-375 13 -381 27 -18 1631 -612 1639 -607 4 3 8 608 8 1345 l0 1339 483 0 482
0 385 372 c212 205 386 378 388 385 3 11 -161 13 -867 13 l-871 0 0 610 0 610
873 2 872 3 0 355 0 355 -1310 2 -1310 2 -2049 -1887z m4654 1528 l0 -340
-872 -2 -873 -3 0 -625 0 -625 865 -5 864 -5 -372 -360 -372 -360 -493 -5
-492 -5 -5 -1340 -5 -1341 -807 301 -808 300 0 370 c0 204 -4 375 -8 381 -4 5
-400 191 -880 413 l-873 402 -202 -189 c-611 -571 -733 -684 -743 -689 -7 -2
-148 64 -314 147 -283 142 -302 153 -286 168 9 9 929 857 2044 1884 l2027
1867 1303 0 1302 1 0 -340z"/>
<path d="M2816 3493 c-356 -317 -645 -581 -643 -587 5 -14 1287 -617 1298
-610 11 7 12 1761 1 1768 -5 3 -300 -254 -656 -571z m642 -745 l-3 -434 -629
296 c-345 162 -628 299 -628 304 0 5 283 260 628 568 l629 559 3 -430 c1 -236
1 -625 0 -863z"/>
</g>
</svg>
